<svg width="243" height="242" fill="none" xmlns="http://www.w3.org/2000/svg"><path d="M88.047 132.74l50.618-44.783-29.984-33.892-37.493 1.447a7.51 7.51 0 00-7.12 6.3l-6.005 37.037 29.984 33.891zm4.976 5.624l9.952 11.249 50.618-44.783-9.952-11.249-50.618 44.783z" fill="#296544"/><path d="M93.453 87.853A7.51 7.51 0 1083.5 76.604a7.51 7.51 0 009.952 11.249zm4.976 5.624a15.02 15.02 0 11-19.904-22.498 15.02 15.02 0 0119.904 22.498z" fill="#fff"/><path d="M51.965 190.465v3.747h4.41v1.709h-4.41v3.913h4.96v1.708h-7.054v-12.785h7.054v1.708h-4.96zm12.885 5.952l3.27 5.125h-2.37l-2.185-3.435-2.058 3.435h-2.186l3.27-4.978-3.27-5.144h2.37l2.186 3.435 2.057-3.435h2.186l-3.27 4.997zm5.144.055c0-1.041.209-1.953.625-2.737.428-.796 1.016-1.409 1.763-1.837.747-.429 1.605-.643 2.572-.643 1.225 0 2.235.294 3.031.882.808.575 1.353 1.402 1.635 2.48h-2.26a2.388 2.388 0 00-.881-1.176c-.404-.282-.912-.423-1.525-.423-.857 0-1.543.307-2.057.919-.502.6-.753 1.445-.753 2.535s.25 1.941.753 2.553c.514.613 1.2.919 2.057.919 1.213 0 2.015-.533 2.407-1.598h2.26c-.295 1.028-.846 1.849-1.654 2.461-.808.6-1.813.9-3.013.9-.967 0-1.825-.214-2.572-.643a4.707 4.707 0 01-1.763-1.837c-.416-.796-.625-1.714-.625-2.755zm13.789-6.393c-.38 0-.698-.128-.955-.386a1.296 1.296 0 01-.386-.955c0-.379.129-.698.386-.955s.575-.386.955-.386c.367 0 .68.129.937.386s.386.576.386.955c0 .38-.13.698-.386.955-.257.258-.57.386-.937.386zm1.029 1.341v10.122h-2.095V191.42h2.095zm6.203 1.709v5.602c0 .38.085.656.257.827.183.159.49.239.918.239h1.286v1.745h-1.653c-.943 0-1.666-.22-2.168-.661-.502-.441-.753-1.158-.753-2.15v-5.602h-1.194v-1.709h1.194v-2.516h2.112v2.516h2.462v1.709h-2.462zm6.467-3.05c-.38 0-.698-.128-.955-.386a1.296 1.296 0 01-.386-.955c0-.379.129-.698.386-.955s.575-.386.955-.386c.367 0 .68.129.937.386s.386.576.386.955c0 .38-.129.698-.386.955-.257.258-.57.386-.937.386zm1.029 1.341v10.122h-2.094V191.42h2.094zm8.866-.165c.796 0 1.507.165 2.131.496.637.331 1.133.82 1.488 1.469.355.65.533 1.433.533 2.352v5.97h-2.076v-5.658c0-.906-.226-1.598-.68-2.076-.453-.49-1.071-.734-1.855-.734s-1.408.244-1.874.734c-.453.478-.679 1.17-.679 2.076v5.658h-2.095V191.42h2.095v1.158a3.476 3.476 0 011.304-.974 4.257 4.257 0 011.708-.349zm11.912 0c.783 0 1.475.159 2.075.478.613.306 1.09.691 1.433 1.157v-1.47h2.113v10.287c0 .931-.196 1.758-.588 2.48a4.217 4.217 0 01-1.709 1.727c-.734.416-1.616.625-2.645.625-1.371 0-2.51-.325-3.417-.974-.906-.637-1.42-1.506-1.543-2.609h2.076c.159.527.496.95 1.01 1.268.527.331 1.152.496 1.874.496.845 0 1.525-.257 2.039-.772.527-.514.79-1.261.79-2.241v-1.69c-.355.478-.839.882-1.451 1.213-.6.318-1.286.477-2.057.477-.882 0-1.69-.22-2.425-.661-.723-.453-1.298-1.078-1.727-1.874-.416-.808-.625-1.72-.625-2.737 0-1.016.209-1.916.625-2.7.429-.784 1.004-1.39 1.727-1.819a4.624 4.624 0 012.425-.661zm3.508 5.217c0-.698-.147-1.304-.441-1.819a2.961 2.961 0 00-1.12-1.175 2.954 2.954 0 00-1.507-.404 2.95 2.95 0 00-1.506.404c-.465.257-.845.643-1.139 1.157-.282.502-.422 1.102-.422 1.8s.14 1.311.422 1.837c.294.527.674.931 1.139 1.213.478.269.98.404 1.506.404.539 0 1.041-.135 1.507-.404a2.97 2.97 0 001.12-1.176c.294-.527.441-1.139.441-1.837zm16.046 5.235c-.955 0-1.818-.214-2.59-.643a4.764 4.764 0 01-1.819-1.837c-.44-.796-.661-1.714-.661-2.755 0-1.029.227-1.941.68-2.737a4.688 4.688 0 011.855-1.837c.784-.429 1.66-.643 2.627-.643.968 0 1.843.214 2.627.643a4.688 4.688 0 011.855 1.837c.453.796.68 1.708.68 2.737 0 1.029-.233 1.941-.698 2.737a4.869 4.869 0 01-1.911 1.855c-.796.429-1.677.643-2.645.643zm0-1.818c.539 0 1.041-.129 1.506-.386.478-.257.864-.643 1.158-1.157.294-.515.441-1.139.441-1.874 0-.735-.141-1.353-.423-1.855-.282-.515-.655-.901-1.12-1.158a3.07 3.07 0 00-1.507-.385c-.539 0-1.041.128-1.506.385-.453.257-.814.643-1.084 1.158-.269.502-.404 1.12-.404 1.855 0 1.09.276 1.935.827 2.535.563.588 1.267.882 2.112.882zm12.578-6.76h-1.874v8.413h-2.112v-8.413h-1.194v-1.709h1.194v-.716c0-1.164.306-2.009.918-2.535.625-.539 1.598-.808 2.921-.808v1.745c-.637 0-1.084.122-1.341.367-.257.233-.386.643-.386 1.231v.716h1.874v1.709zm7.11 0h-1.874v8.413h-2.113v-8.413h-1.194v-1.709h1.194v-.716c0-1.164.306-2.009.919-2.535.624-.539 1.598-.808 2.921-.808v1.745c-.637 0-1.084.122-1.341.367-.258.233-.386.643-.386 1.231v.716h1.874v1.709zm12.143 3.104c0 .38-.025.723-.074 1.029h-7.734c.062.808.362 1.457.901 1.947.538.49 1.2.735 1.983.735 1.127 0 1.923-.472 2.389-1.415h2.259a4.59 4.59 0 01-1.672 2.297c-.796.587-1.788.881-2.976.881-.967 0-1.836-.214-2.608-.643a4.8 4.8 0 01-1.8-1.837c-.429-.796-.643-1.714-.643-2.755s.208-1.953.624-2.737a4.52 4.52 0 011.782-1.837c.772-.429 1.654-.643 2.645-.643.956 0 1.807.208 2.554.624a4.402 4.402 0 011.745 1.764c.416.747.625 1.61.625 2.59zm-2.186-.661c-.013-.772-.288-1.39-.827-1.856-.539-.465-1.206-.698-2.002-.698-.723 0-1.341.233-1.856.698-.514.454-.82 1.072-.918 1.856h5.603zm7.351-2.682c.306-.515.71-.913 1.212-1.194.515-.294 1.121-.441 1.819-.441v2.168h-.533c-.82 0-1.445.208-1.873.624-.417.416-.625 1.139-.625 2.168v5.327h-2.094V191.42h2.094v1.47zm9.64 8.817c-.796 0-1.512-.141-2.149-.422-.625-.294-1.121-.686-1.488-1.176a2.98 2.98 0 01-.588-1.672h2.168c.037.429.239.79.606 1.084.38.282.851.423 1.414.423.588 0 1.041-.11 1.36-.331.33-.233.496-.526.496-.882 0-.379-.184-.661-.551-.845-.355-.183-.925-.385-1.709-.606a16.568 16.568 0 01-1.855-.606 3.327 3.327 0 01-1.249-.9c-.343-.404-.515-.937-.515-1.598 0-.539.16-1.029.478-1.47.319-.453.772-.808 1.359-1.065.601-.258 1.286-.386 2.058-.386 1.151 0 2.076.294 2.774.882.71.575 1.09 1.365 1.139 2.369h-2.095c-.036-.453-.22-.814-.551-1.083-.33-.27-.777-.405-1.341-.405-.551 0-.973.105-1.267.313-.294.208-.441.483-.441.826 0 .27.098.496.294.68.196.184.435.331.716.441.282.098.698.226 1.249.386.735.196 1.335.398 1.801.606.477.196.888.49 1.231.882.342.391.52.912.532 1.561a2.62 2.62 0 01-.477 1.543c-.319.453-.772.808-1.36 1.066-.575.257-1.255.385-2.039.385zM52.226 224.233c0 .38-.024.723-.073 1.029h-7.734c.062.808.362 1.457.9 1.947.54.49 1.2.735 1.984.735 1.127 0 1.923-.472 2.388-1.415h2.26a4.595 4.595 0 01-1.672 2.297c-.796.587-1.788.881-2.976.881-.967 0-1.837-.214-2.608-.643a4.797 4.797 0 01-1.8-1.837c-.43-.796-.643-1.714-.643-2.755s.208-1.953.624-2.737a4.515 4.515 0 011.782-1.837c.772-.429 1.653-.643 2.645-.643.956 0 1.807.208 2.554.624a4.404 4.404 0 011.745 1.764c.416.747.624 1.61.624 2.59zm-2.186-.661c-.012-.772-.287-1.39-.826-1.856-.54-.465-1.206-.698-2.002-.698-.723 0-1.342.233-1.856.698-.514.454-.82 1.072-.918 1.856h5.602zm9.17 4.096l2.866-8.248H64.3l-3.858 10.122h-2.498l-3.84-10.122h2.242l2.865 8.248zm16.959-3.435c0 .38-.025.723-.074 1.029h-7.733c.06.808.361 1.457.9 1.947s1.2.735 1.984.735c1.126 0 1.922-.472 2.388-1.415h2.26a4.595 4.595 0 01-1.672 2.297c-.796.587-1.788.881-2.976.881-.968 0-1.837-.214-2.609-.643a4.798 4.798 0 01-1.8-1.837c-.429-.796-.643-1.714-.643-2.755s.208-1.953.625-2.737a4.516 4.516 0 011.781-1.837c.772-.429 1.654-.643 2.646-.643.955 0 1.806.208 2.553.624a4.405 4.405 0 011.745 1.764c.417.747.625 1.61.625 2.59zm-2.186-.661c-.012-.772-.288-1.39-.827-1.856-.539-.465-1.206-.698-2.002-.698-.723 0-1.341.233-1.855.698-.515.454-.821 1.072-.919 1.856h5.603zm7.351-2.682a3.23 3.23 0 011.213-1.194c.514-.294 1.12-.441 1.818-.441v2.168h-.532c-.821 0-1.446.208-1.874.624-.417.416-.625 1.139-.625 2.168v5.327H79.24V219.42h2.094v1.47zm15.078-1.47l-6.209 14.88h-2.168l2.058-4.923-3.987-9.957h2.334l2.847 7.716 2.957-7.716h2.168zm16.621-2.645v1.708h-3.399v11.059h-2.094v-11.059h-3.416v-1.708h8.909zm8.366 2.48c.772 0 1.458.165 2.058.496.612.331 1.09.82 1.433 1.469.355.65.532 1.433.532 2.352v5.97h-2.075v-5.658c0-.906-.227-1.598-.68-2.076-.453-.49-1.072-.734-1.855-.734-.784 0-1.409.244-1.874.734-.453.478-.68 1.17-.68 2.076v5.658h-2.094v-13.594h2.094v4.648a3.523 3.523 0 011.341-.992 4.574 4.574 0 011.8-.349zm16.872.165v10.122h-2.095v-1.194c-.33.416-.765.747-1.304.992a4.127 4.127 0 01-1.69.349c-.796 0-1.512-.165-2.149-.496a3.654 3.654 0 01-1.488-1.47c-.355-.649-.533-1.432-.533-2.351v-5.952h2.076v5.64c0 .906.227 1.604.68 2.094.453.478 1.071.716 1.855.716s1.402-.238 1.855-.716c.466-.49.698-1.188.698-2.094v-5.64h2.095zm5.867 1.47c.306-.515.71-.913 1.213-1.194.514-.294 1.12-.441 1.818-.441v2.168h-.533c-.82 0-1.445.208-1.873.624-.417.416-.625 1.139-.625 2.168v5.327h-2.094V219.42h2.094v1.47zm9.64 8.817c-.796 0-1.512-.141-2.149-.422-.624-.294-1.12-.686-1.488-1.176a2.98 2.98 0 01-.588-1.672h2.168c.037.429.239.79.606 1.084.38.282.851.423 1.415.423.587 0 1.041-.11 1.359-.331.331-.233.496-.526.496-.882 0-.379-.184-.661-.551-.845-.355-.183-.925-.385-1.708-.606-.76-.208-1.378-.41-1.856-.606a3.335 3.335 0 01-1.249-.9c-.343-.404-.514-.937-.514-1.598 0-.539.159-1.029.477-1.47.319-.453.772-.808 1.36-1.065.6-.258 1.286-.386 2.057-.386 1.151 0 2.076.294 2.774.882.71.575 1.09 1.365 1.139 2.369h-2.094c-.037-.453-.221-.814-.551-1.083-.331-.27-.778-.405-1.341-.405-.552 0-.974.105-1.268.313-.294.208-.441.483-.441.826 0 .27.098.496.294.68.196.184.435.331.717.441.281.098.698.226 1.249.386.734.196 1.335.398 1.8.606.478.196.888.49 1.231.882.343.391.52.912.532 1.561a2.62 2.62 0 01-.477 1.543c-.319.453-.772.808-1.36 1.066-.575.257-1.255.385-2.039.385zm6.451-5.272c0-1.016.209-1.916.625-2.7a4.657 4.657 0 014.17-2.48c.661 0 1.31.147 1.947.441.649.281 1.164.661 1.543 1.139v-4.887h2.113v13.594h-2.113v-1.525c-.343.49-.82.894-1.433 1.213-.6.318-1.292.477-2.075.477-.882 0-1.69-.22-2.425-.661-.723-.453-1.298-1.078-1.727-1.874-.416-.808-.625-1.72-.625-2.737zm8.285.037c0-.698-.147-1.304-.441-1.819a2.961 2.961 0 00-1.12-1.175 2.953 2.953 0 00-1.506-.404c-.539 0-1.041.134-1.507.404-.465.257-.845.643-1.139 1.157-.281.502-.422 1.102-.422 1.8s.141 1.311.422 1.837c.294.527.674.931 1.139 1.213.478.269.98.404 1.507.404.538 0 1.04-.135 1.506-.404a2.97 2.97 0 001.12-1.176c.294-.527.441-1.139.441-1.837zm5.176-.037c0-1.016.208-1.916.624-2.7.429-.784 1.004-1.39 1.727-1.819a4.624 4.624 0 012.425-.661c.796 0 1.488.159 2.076.478.6.306 1.077.691 1.432 1.157v-1.47h2.113v10.122h-2.113v-1.506c-.355.477-.838.875-1.451 1.194-.612.318-1.31.477-2.094.477-.869 0-1.665-.22-2.388-.661-.723-.453-1.298-1.078-1.727-1.874-.416-.808-.624-1.72-.624-2.737zm8.284.037c0-.698-.147-1.304-.44-1.819a2.97 2.97 0 00-1.121-1.175 2.947 2.947 0 00-1.506-.404c-.539 0-1.041.134-1.507.404-.465.257-.845.643-1.139 1.157-.281.502-.422 1.102-.422 1.8s.141 1.311.422 1.837c.294.527.674.931 1.139 1.213.478.269.98.404 1.507.404.539 0 1.041-.135 1.506-.404a2.98 2.98 0 001.121-1.176c.293-.527.44-1.139.44-1.837zm14.985-5.052l-6.209 14.88h-2.167l2.057-4.923-3.986-9.957h2.333l2.847 7.716 2.958-7.716h2.167z" fill="#111"/></svg>