<svg width="109" height="97" fill="none" xmlns="http://www.w3.org/2000/svg"><path d="M102.677 2.552c-1.046-2.335-4.036-2.429-5.288-.224-5.792 10.071-16.162 16.35-28.008 16.35H54.433c-19.806 0-35.875 16.068-35.875 35.874 0 1.308.15 2.56.28 3.83 11.921-8.539 29.13-15.788 53.533-15.788a2.998 2.998 0 012.989 2.99 2.998 2.998 0 01-2.99 2.989c-46.973 0-66.891 28.793-71.3 39.611a5.979 5.979 0 003.27 7.773c3.064 1.27 6.539-.205 7.81-3.232.28-.673 3.905-8.95 13.434-16.929C31.638 84 43.148 91.828 58.264 90.221c29.334-2.13 49.981-28.438 49.981-60.65 0-9.38-2.018-19.097-5.568-27.019z" fill="#296544"/></svg>