<svg width="18" height="18" viewBox="0 0 18 18" fill="none" xmlns="http://www.w3.org/2000/svg">
<path d="M5.67428 14.4222C5.60597 14.8951 5.20142 16.1718 5.20142 17.4958L5.45321 17.155L5.90765 16.7865L8.03857 15.6044L10.3241 14.6556L11.7017 13.8603L12.6106 13.1787L13.6026 12.2943L14.6271 10.8758L15.4467 9.69362L16.2663 7.56575L16.6761 5.67431L17.0229 3.78288L17.4958 1.65501L17.4958 0.681655L17.2909 0L17.1549 0.681655L16.5332 1.65501L14.895 2.83716L13.6026 3.78288L12.3731 4.7286L11.3486 5.43789L10.3241 6.3836L9.29953 7.56575L8.47991 8.7479L7.66029 9.93005L6.38356 12.2943L5.67428 14.4222Z" fill="url(#paint0_linear_19_1882)"/>
<path d="M5.11473 14.4222C5.14362 14.8951 5.20142 16.1718 5.20142 17.4958L4.76796 16.7865L4.4212 16.3137L3.81436 15.6044L3.4676 15.1315L3.03414 14.4222L2.514 13.7129L2.16723 13.0036L1.73378 12.0579L1.21363 10.8758L0.866871 9.69362L0.520107 7.56575L0.346725 5.67431L0.200017 3.78288L-3.86238e-05 1.65501V0.945719L0.0866518 0L0.0999894 0.709289L0.400073 1.65501L1.10027 2.83716L1.64709 3.78288L2.16723 4.7286L2.60069 5.43788L3.03414 6.3836L3.4676 7.56575L3.81436 8.7479L4.16113 9.93005L4.76796 12.2943L5.11473 14.4222Z" fill="url(#paint1_linear_19_1882)"/>
<defs>
<linearGradient id="paint0_linear_19_1882" x1="11.3486" y1="0" x2="11.3486" y2="17.4958" gradientUnits="userSpaceOnUse">
<stop stop-color="#3DBC9F"/>
<stop offset="0.0001" stop-color="#4B9744"/>
<stop offset="0.140625" stop-color="#91C598"/>
<stop offset="1" stop-color="#D8F3ED"/>
</linearGradient>
<linearGradient id="paint1_linear_19_1882" x1="2.60069" y1="0" x2="2.60069" y2="17.4958" gradientUnits="userSpaceOnUse">
<stop stop-color="#FAFAFA"/>
<stop offset="1" stop-color="#D8F3ED"/>
</linearGradient>
</defs>
</svg>